<svg width="16" height="23" viewBox="0 0 16 23" fill="none" xmlns="http://www.w3.org/2000/svg">
<path d="M5.3591 19.8636H9.64481V18.8182H5.3591V19.8636ZM2.14481 23C1.55552 23 1.05124 22.7954 0.631953 22.3863C0.211953 21.9765 0.00195312 21.4841 0.00195312 20.9091V2.09091C0.00195312 1.51591 0.211953 1.0235 0.631953 0.613682C1.05124 0.204561 1.55552 0 2.14481 0H12.8591C13.4484 0 13.953 0.204561 14.373 0.613682C14.7923 1.0235 15.002 1.51591 15.002 2.09091V20.9091C15.002 21.4841 14.7923 21.9765 14.373 22.3863C13.953 22.7954 13.4484 23 12.8591 23H2.14481ZM2.14481 15.6818H12.8591V5.22727H2.14481V15.6818Z" fill="white"/>
</svg>
