<svg width="32" height="32" viewBox="0 0 32 32" fill="none" xmlns="http://www.w3.org/2000/svg">
<path d="M31.3316 0.668363C30.4405 -0.222788 28.9953 -0.222788 28.1037 0.668363L16 12.772L3.89629 0.668363C3.00514 -0.222788 1.55992 -0.222788 0.668366 0.668363C-0.222789 1.55991 -0.222789 3.00473 0.668366 3.89628L12.7721 15.9999L0.668366 28.1036C-0.222789 28.9947 -0.222789 30.4399 0.668366 31.3315C1.55952 32.2226 3.00474 32.2226 3.89629 31.3315L16 19.2278L28.1037 31.3315C28.9949 32.2226 30.4401 32.223 31.3316 31.3315C32.2228 30.4403 32.2228 28.9951 31.3316 28.1036L19.2279 15.9999L31.3316 3.89628C32.2228 3.00513 32.2228 1.55991 31.3316 0.668363Z" fill="#003EB2"/>
</svg>
