<svg width="11" height="21" viewBox="0 0 11 21" fill="none" xmlns="http://www.w3.org/2000/svg">
<path d="M2.17972 0.415567L10.7212 9.72428C10.8226 9.83509 10.8942 9.95515 10.9361 10.0844C10.9787 10.2137 11 10.3522 11 10.5C11 10.6478 10.9787 10.7863 10.9361 10.9156C10.8942 11.0449 10.8226 11.1649 10.7212 11.2757L2.17972 20.6121C1.94316 20.8707 1.64747 21 1.29263 21C0.937788 21 0.63364 20.8615 0.380184 20.5844C0.126728 20.3074 8.88068e-08 19.9842 1.211e-07 19.6148C1.53394e-07 19.2454 0.126728 18.9222 0.380184 18.6451L7.8318 10.5L0.380186 2.35488C0.143627 2.09631 0.0253465 1.77789 0.0253466 1.39963C0.0253466 1.02063 0.152076 0.692611 0.405532 0.415566C0.658988 0.138522 0.954687 -8.78189e-07 1.29263 -8.48646e-07C1.63057 -8.19102e-07 1.92627 0.138522 2.17972 0.415567Z" fill="#003EB2"/>
</svg>
