<svg width="11" height="21" viewBox="0 0 11 21" fill="none" xmlns="http://www.w3.org/2000/svg">
<path d="M8.82028 0.415567L0.2788 9.72428C0.177418 9.83509 0.105774 9.95515 0.0638697 10.0844C0.0212891 10.2137 -9.30857e-07 10.3522 -9.17939e-07 10.5C-9.05022e-07 10.6478 0.0212892 10.7863 0.0638698 10.9156C0.105775 11.0449 0.177418 11.1649 0.278801 11.2757L8.82028 20.6121C9.05684 20.8707 9.35253 21 9.70737 21C10.0622 21 10.3664 20.8615 10.6198 20.5844C10.8733 20.3074 11 19.9842 11 19.6148C11 19.2454 10.8733 18.9222 10.6198 18.6451L3.1682 10.5L10.6198 2.35488C10.8564 2.09631 10.9747 1.77789 10.9747 1.39963C10.9747 1.02063 10.8479 0.692611 10.5945 0.415566C10.341 0.138522 10.0453 -8.78189e-07 9.70737 -8.48646e-07C9.36943 -8.19102e-07 9.07373 0.138522 8.82028 0.415567Z" fill="#232323" fill-opacity="0.5"/>
</svg>
