<?xml version="1.0" encoding="utf-8"?><svg xmlns="http://www.w3.org/2000/svg" xmlns:xlink="http://www.w3.org/1999/xlink"><symbol viewBox="0 0 32 32" id="close" xmlns="http://www.w3.org/2000/svg"><path d="M31.332.668a2.283 2.283 0 00-3.228 0L16 12.772 3.896.668A2.283 2.283 0 00.668 3.896L12.772 16 .668 28.104a2.283 2.283 0 003.228 3.227L16 19.228 28.104 31.33a2.283 2.283 0 003.228-3.227L19.228 16 31.332 3.896a2.283 2.283 0 000-3.228z"/></symbol><symbol viewBox="0 0 11 21" id="next" xmlns="http://www.w3.org/2000/svg"><path d="M2.18.416l8.541 9.308a.976.976 0 01.215.36c.043.13.064.268.064.416 0 .148-.021.286-.064.416a.978.978 0 01-.215.36L2.18 20.612a1.152 1.152 0 01-.887.388c-.355 0-.66-.139-.913-.416-.253-.277-.38-.6-.38-.97 0-.369.127-.692.38-.969L7.832 10.5.38 2.355A1.363 1.363 0 01.025 1.4c0-.38.127-.707.38-.984C.66.139.956 0 1.294 0c.338 0 .633.139.887.416z"/></symbol><symbol viewBox="0 0 11 21" id="previous" xmlns="http://www.w3.org/2000/svg"><path d="M8.82.416L.28 9.724a.98.98 0 00-.215.36A1.32 1.32 0 000 10.5c0 .148.021.286.064.416a.976.976 0 00.215.36l8.541 9.336c.237.259.533.388.887.388.355 0 .66-.139.913-.416.253-.277.38-.6.38-.97 0-.369-.127-.692-.38-.969L3.168 10.5l7.452-8.145c.236-.259.355-.577.355-.955a1.41 1.41 0 00-.38-.984C10.34.139 10.044 0 9.707 0c-.338 0-.633.139-.887.416z" fill-opacity=".5"/></symbol></svg>